<svg xmlns="http://www.w3.org/2000/svg" viewBox="0 0 100 100">
  <g fill="#141412">
    <path d="M 49.17 45.07 Q 53.6 26.07 77.09 15.33 Q 63.86 32.91 50.83 45.07 Z"/>
    <path d="M 49.17 45.07 Q 53.6 26.07 77.09 15.33 Q 63.86 32.91 50.83 45.07 Z" transform="rotate(60 50 50)"/>
    <path d="M 49.17 45.07 Q 53.6 26.07 77.09 15.33 Q 63.86 32.91 50.83 45.07 Z" transform="rotate(120 50 50)"/>
    <path d="M 49.17 45.07 Q 53.6 26.07 77.09 15.33 Q 63.86 32.91 50.83 45.07 Z" transform="rotate(180 50 50)"/>
    <path d="M 49.17 45.07 Q 53.6 26.07 77.09 15.33 Q 63.86 32.91 50.83 45.07 Z" transform="rotate(240 50 50)"/>
    <path d="M 49.17 45.07 Q 53.6 26.07 77.09 15.33 Q 63.86 32.91 50.83 45.07 Z" transform="rotate(300 50 50)"/>
  </g>
</svg>
